{"glyphs":{":":{"x_min":0,"x_max":275,"ha":275,"o":"m 66 411 l 66 562 l 219 562 l 219 411 z m 66 58 l 66 209 l 219 209 l 219 58 z"},"$":{"x_min":0,"x_max":487,"ha":487,"o":"m 233 -108 l 233 -11 q 128 -6 77 56 q 26 118 22 246 l 175 269 q 176 193 194 158 q 211 124 246 124 q 291 124 291 183 q 291 215 279 243 q 268 271 250 290 q 233 310 203 336 l 131 398 q 105 420 88 439 q 71 458 54 483 q 38 509 30 540 q 22 571 22 609 q 22 703 76 757 q 130 812 224 820 l 224 912 l 275 912 l 275 820 q 307 818 333 809 q 359 800 376 787 q 394 773 408 754 q 421 735 429 716 q 437 698 442 674 q 447 651 448 632 q 450 614 451 591 l 296 571 q 296 592 295 605 q 294 619 292 634 q 291 649 287 658 q 284 667 278 676 q 272 684 264 687 q 255 690 244 690 q 220 689 208 670 q 195 651 195 627 q 195 604 201 585 q 207 566 220 549 q 234 531 243 522 q 252 514 272 495 l 341 435 q 370 409 390 386 q 411 363 429 333 q 448 304 457 268 q 467 233 467 192 q 467 111 417 55 q 367 -1 283 -10 l 283 -108 z"},"?":{"x_min":0,"x_max":485,"ha":485,"o":"m 125 0 l 125 155 l 284 155 l 284 0 z m 129 212 l 129 342 q 203 402 248 476 q 289 542 289 609 q 289 617 289 624 q 285 682 232 682 q 210 683 197 667 q 186 654 186 632 q 186 629 186 626 q 186 606 196 574 l 49 541 q 34 600 34 626 q 34 635 34 643 q 33 675 41 703 q 51 738 73 765 q 96 792 135 808 q 175 823 229 823 q 336 823 393 769 q 450 715 450 618 q 450 530 401 446 q 351 361 278 310 l 278 212 z"},"<":{"x_min":0,"x_max":398,"ha":398,"o":"m 341 97 l 31 312 l 31 440 l 341 657 l 341 514 l 148 377 l 341 239 z"},"'":{"x_min":0,"x_max":234,"ha":234,"o":"m 43 510 l 43 810 l 177 810 l 123 510 z"},"=":{"x_min":0,"x_max":443,"ha":443,"o":"m 62 438 l 62 537 l 381 537 l 381 438 z m 62 248 l 62 348 l 381 348 l 381 248 z"},"a":{"x_min":0,"x_max":477,"ha":477,"o":"m 229 102 q 241 102 253 110 q 266 118 273 129 l 273 288 q 234 268 209 233 q 184 197 184 164 q 184 135 197 119 q 209 102 229 102 z m 170 -10 q 108 -9 72 33 q 36 76 36 131 q 36 159 43 184 q 50 208 60 227 q 70 245 88 262 q 106 279 121 289 q 135 300 159 312 q 184 324 198 330 q 213 335 238 345 q 263 354 273 359 l 273 416 q 273 440 266 454 q 259 467 239 467 q 206 467 204 421 l 200 378 l 48 384 q 48 386 48 394 q 49 402 49 403 q 56 498 108 543 q 159 588 255 588 q 340 588 385 541 q 430 493 430 414 l 430 145 q 430 89 440 0 l 295 0 q 282 70 281 82 q 270 42 241 16 q 213 -10 170 -10 z"},"L":{"x_min":0,"x_max":442,"ha":442,"o":"m 60 0 l 60 810 l 238 810 l 238 121 l 424 121 l 424 0 z"},"3":{"x_min":0,"x_max":526,"ha":526,"o":"m 271 -15 q 209 -15 165 3 q 121 21 95 56 q 70 90 58 135 q 47 180 47 239 l 47 268 l 214 268 l 214 239 q 215 177 227 152 q 239 126 273 126 q 306 126 316 151 q 327 176 327 234 q 327 297 309 327 q 292 356 242 357 l 213 357 l 213 475 l 239 475 q 290 475 309 502 q 327 529 327 592 q 327 641 314 665 q 301 688 269 688 q 237 688 226 663 q 215 638 214 588 l 214 547 l 47 547 l 47 596 q 47 704 106 763 q 165 822 269 822 q 375 822 434 766 q 492 709 492 603 q 492 534 464 485 q 436 437 393 425 q 492 389 492 238 q 492 181 480 136 q 468 91 443 56 q 417 22 374 4 q 330 -15 271 -15 z"},";":{"x_min":0,"x_max":283,"ha":283,"o":"m 66 423 l 66 575 l 219 575 l 219 423 z m 90 -116 l 80 -63 q 152 -52 152 19 l 66 19 l 66 171 l 221 171 l 221 38 q 221 -37 188 -76 q 156 -116 90 -116 z"},"J":{"x_min":0,"x_max":349,"ha":349,"o":"m 13 -20 l 13 105 q 16 105 19 105 q 71 104 90 120 q 110 137 110 187 l 110 810 l 289 810 l 289 180 q 288 128 279 93 q 270 57 249 31 q 228 5 191 -7 q 154 -20 100 -20 z"},"V":{"x_min":0,"x_max":526,"ha":526,"o":"m 169 0 l 22 810 l 175 810 l 262 264 l 343 810 l 505 810 l 357 0 z"},"\"":{"x_min":0,"x_max":356,"ha":356,"o":"m 214 510 l 214 810 l 354 810 l 290 510 z m 28 510 l 28 810 l 167 810 l 104 510 z"},"7":{"x_min":0,"x_max":501,"ha":501,"o":"m 108 0 l 283 683 l 64 683 l 64 810 l 447 810 l 447 696 l 271 0 z"},"S":{"x_min":0,"x_max":514,"ha":514,"o":"m 274 -11 q 159 -11 103 50 q 46 111 42 246 l 195 269 q 196 193 214 158 q 231 124 266 124 q 311 124 311 183 q 311 215 299 243 q 288 271 271 290 q 253 310 223 336 l 151 398 q 125 420 108 439 q 91 458 74 483 q 58 509 50 540 q 42 571 42 609 q 42 710 103 765 q 164 820 269 821 q 305 821 335 813 q 364 805 385 792 q 405 780 420 760 q 436 741 445 722 q 454 703 460 678 q 466 654 468 634 q 470 614 471 591 l 316 571 q 316 592 315 605 q 314 619 312 634 q 311 649 307 658 q 304 667 298 676 q 292 684 284 687 q 275 690 264 690 q 240 689 228 670 q 215 651 215 627 q 215 604 221 585 q 227 566 240 549 q 254 531 263 522 q 272 514 292 495 l 361 435 q 390 409 410 386 q 431 363 449 333 q 468 304 477 268 q 487 233 487 192 q 487 104 428 47 q 370 -11 274 -11 z"},"}":{"x_min":0,"x_max":381,"ha":381,"o":"m 38 -195 l 38 -85 q 66 -85 80 -82 q 94 -79 104 -66 q 113 -53 115 -32 q 117 -12 117 28 l 117 121 q 117 211 136 258 q 155 305 204 316 q 155 328 136 375 q 117 421 117 512 l 117 604 q 117 645 115 665 q 113 685 104 698 q 94 711 80 715 q 66 718 38 718 l 38 827 q 78 827 108 825 q 139 822 163 816 q 187 810 204 802 q 221 793 233 780 q 245 766 252 751 q 259 736 263 713 q 267 690 268 668 q 269 646 269 613 l 269 531 q 269 500 269 483 q 270 466 271 447 q 271 428 273 419 q 274 410 278 400 q 282 390 286 386 q 290 383 298 379 q 305 376 313 375 q 321 375 333 375 l 333 258 q 321 258 313 257 q 305 256 298 253 q 290 250 286 246 q 282 242 278 232 q 274 223 273 213 q 271 204 271 185 q 270 167 269 149 q 269 132 269 102 l 269 19 q 269 -14 268 -36 q 267 -58 263 -81 q 259 -104 252 -119 q 245 -133 233 -147 q 221 -161 204 -169 q 187 -177 163 -184 q 139 -190 108 -192 q 78 -195 38 -195 z"},"Z":{"x_min":0,"x_max":432,"ha":432,"o":"m 30 0 l 30 108 l 227 688 l 38 688 l 38 810 l 404 810 l 404 710 l 202 121 l 405 121 l 405 0 z"},"x":{"x_min":0,"x_max":441,"ha":441,"o":"m 10 0 l 133 317 l 16 578 l 180 578 l 242 439 l 296 578 l 423 578 l 308 292 l 438 0 l 274 0 l 203 158 l 146 0 z"},")":{"x_min":0,"x_max":326,"ha":326,"o":"m 35 -181 l 35 -66 q 86 -66 106 25 q 125 117 125 316 q 125 519 107 612 q 88 705 35 705 l 35 819 q 68 819 95 812 q 123 806 145 793 q 167 780 184 763 q 202 746 215 721 q 228 696 238 671 q 248 646 254 611 q 261 577 265 546 q 270 514 272 473 q 274 433 275 397 q 275 361 275 316 q 275 268 274 231 q 273 194 271 150 q 268 106 262 73 q 257 39 248 3 q 239 -33 226 -59 q 214 -85 196 -109 q 177 -133 155 -148 q 132 -164 102 -172 q 71 -181 35 -181 z"},"&":{"x_min":0,"x_max":571,"ha":571,"o":"m 243 493 q 298 599 298 657 q 298 680 284 693 q 271 706 251 706 q 231 706 219 690 q 206 674 206 648 q 206 626 213 596 q 220 566 231 532 q 242 499 243 493 z m 228 98 q 274 98 301 134 q 219 299 210 320 q 170 253 170 189 q 170 148 187 123 q 205 98 228 98 z m 225 -13 q 143 -13 92 40 q 40 93 40 177 q 40 247 73 314 q 105 382 154 430 q 145 448 127 482 q 109 516 99 536 q 89 556 81 585 q 72 614 72 641 q 72 718 119 770 q 167 822 245 822 q 323 822 374 775 q 425 729 425 649 q 425 626 421 604 q 417 582 407 562 q 398 542 390 526 q 381 511 365 491 q 350 472 341 462 q 332 452 314 433 q 295 414 289 407 l 383 232 q 395 252 402 302 q 410 353 412 398 l 523 398 q 523 316 508 257 q 493 198 463 141 q 473 129 491 120 q 509 111 529 109 l 529 -11 q 512 -15 500 -15 q 490 -15 480 -13 q 470 -11 459 -6 q 448 0 441 3 q 434 7 422 16 q 411 26 407 29 q 403 32 390 43 q 377 55 376 56 q 350 23 310 5 q 271 -13 225 -13 z"},"_":{"x_min":0,"x_max":368,"ha":368,"o":"m 0 -167 l 0 -57 l 368 -57 l 368 -167 z"},"v":{"x_min":0,"x_max":421,"ha":421,"o":"m 125 0 l 10 578 l 167 578 l 214 208 l 258 578 l 414 578 l 296 0 z"},"O":{"x_min":0,"x_max":585,"ha":585,"o":"m 292 -11 q 225 -11 177 7 q 129 24 101 60 q 73 95 61 143 q 48 191 48 256 l 48 555 q 48 620 61 668 q 73 715 101 750 q 129 786 177 803 q 225 821 292 821 q 423 821 480 754 q 537 687 537 555 l 537 256 q 537 124 480 56 q 423 -11 292 -11 z m 354 211 l 354 600 q 354 616 353 628 q 352 640 348 653 q 344 667 338 675 q 332 683 320 689 q 308 694 292 694 q 276 694 264 689 q 253 683 247 675 q 240 667 237 653 q 233 639 233 628 q 232 617 232 600 l 232 211 q 232 194 233 183 q 233 171 237 157 q 240 144 247 135 q 253 127 264 121 q 276 115 292 115 q 308 115 320 121 q 332 126 338 135 q 344 144 348 157 q 352 171 353 183 q 354 195 354 211 z"},"(":{"x_min":0,"x_max":338,"ha":338,"o":"m 303 -181 q 267 -181 236 -172 q 206 -164 183 -148 q 161 -133 142 -109 q 124 -85 112 -59 q 99 -33 90 3 q 81 39 76 72 q 70 106 67 150 q 64 193 63 230 q 62 268 62 315 q 62 382 64 430 q 66 479 72 534 q 77 590 87 629 q 98 668 115 707 q 133 745 158 768 q 184 791 220 805 q 256 819 303 819 l 303 705 q 250 705 231 611 q 213 518 213 315 q 213 116 232 25 q 251 -66 303 -66 z"},"C":{"x_min":0,"x_max":562,"ha":562,"o":"m 292 -11 q 224 -11 176 8 q 128 26 100 63 q 73 100 61 147 q 48 195 48 260 l 48 548 q 48 614 61 663 q 73 711 100 748 q 128 784 176 802 q 223 821 292 821 q 357 821 403 804 q 449 788 475 755 q 501 723 513 682 q 524 641 524 587 l 524 516 l 350 516 l 350 597 q 350 616 349 626 q 349 636 346 651 q 343 667 337 674 q 332 682 320 688 q 308 694 292 694 q 275 694 263 688 q 251 682 245 674 q 239 665 236 650 q 232 635 231 623 q 230 611 230 593 l 230 215 q 230 167 243 141 q 256 115 292 115 q 308 115 319 121 q 331 127 336 136 q 342 144 345 159 q 349 174 349 186 q 350 197 350 215 l 350 300 l 524 300 l 524 230 q 524 187 518 152 q 511 117 494 86 q 478 55 452 34 q 426 13 385 1 q 345 -11 292 -11 z"},"W":{"x_min":0,"x_max":699,"ha":699,"o":"m 125 0 l 28 810 l 180 810 l 228 339 l 290 810 l 408 810 l 473 342 l 521 810 l 671 810 l 573 0 l 418 0 l 349 488 l 283 0 z"},"A":{"x_min":0,"x_max":550,"ha":550,"o":"m 233 279 l 320 279 l 276 592 z m 21 0 l 174 810 l 376 810 l 529 0 l 364 0 l 336 172 l 218 172 l 190 0 z"},"f":{"x_min":0,"x_max":320,"ha":320,"o":"m 72 0 l 72 467 l 17 467 l 17 578 l 72 578 l 72 619 q 72 647 74 667 q 76 688 82 708 q 88 729 99 743 q 110 757 127 768 q 145 779 170 784 q 196 790 231 790 q 266 790 309 785 l 309 664 q 281 668 274 668 q 235 668 235 624 l 235 578 l 309 578 l 309 467 l 235 467 l 235 0 z"},"Q":{"x_min":0,"x_max":585,"ha":585,"o":"m 354 211 l 354 600 q 354 616 353 628 q 352 640 348 653 q 344 667 338 675 q 332 683 320 689 q 308 694 292 694 q 276 694 264 689 q 253 683 247 675 q 240 667 237 653 q 233 639 233 628 q 232 617 232 600 l 232 211 q 232 194 233 183 q 233 171 237 157 q 240 144 247 135 q 253 127 264 121 q 276 115 292 115 q 308 115 320 121 q 332 126 338 135 q 344 144 348 157 q 352 171 353 183 q 354 195 354 211 z m 474 -159 q 438 -144 388 -101 q 338 -57 309 -11 l 292 -11 q 225 -11 177 7 q 129 24 101 60 q 73 95 61 143 q 48 191 48 256 l 48 555 q 48 620 61 668 q 73 715 101 750 q 129 786 177 803 q 225 821 292 821 q 423 821 480 754 q 537 687 537 555 l 537 256 q 537 74 430 18 q 478 -35 511 -52 z"},"w":{"x_min":0,"x_max":598,"ha":598,"o":"m 106 0 l 21 578 l 157 578 l 199 250 l 245 578 l 362 578 l 402 243 l 450 578 l 577 578 l 489 0 l 350 0 l 300 324 l 245 0 z"},"-":{"x_min":0,"x_max":386,"ha":386,"o":"m 63 295 l 63 400 l 323 400 l 323 295 z"},"E":{"x_min":0,"x_max":447,"ha":447,"o":"m 60 0 l 60 810 l 423 810 l 423 688 l 238 688 l 238 487 l 379 487 l 379 363 l 238 363 l 238 121 l 425 121 l 425 0 z"},"s":{"x_min":0,"x_max":422,"ha":422,"o":"m 220 -10 q 146 -10 98 25 q 49 60 19 135 l 132 185 q 148 144 171 121 q 191 101 213 101 q 215 101 218 101 q 233 102 243 113 q 253 124 253 140 q 252 148 247 157 q 241 167 226 182 q 210 197 204 202 q 198 208 176 226 l 131 265 q 33 348 33 427 q 32 474 58 511 q 82 548 123 568 q 163 588 210 588 q 281 588 329 549 q 376 511 396 439 l 291 390 q 281 423 262 448 q 244 473 220 474 q 219 474 219 474 q 201 475 191 465 q 181 455 180 440 q 178 417 250 357 q 255 352 258 350 l 302 311 q 327 289 340 276 q 353 264 371 242 q 389 220 397 197 q 405 174 405 147 q 405 98 378 62 q 352 25 311 7 q 270 -10 220 -10 z"},">":{"x_min":0,"x_max":398,"ha":398,"o":"m 55 97 l 55 239 l 247 377 l 55 514 l 55 657 l 364 440 l 364 312 z"},"l":{"x_min":0,"x_max":274,"ha":274,"o":"m 58 0 l 58 810 l 221 810 l 221 0 z"},"8":{"x_min":0,"x_max":530,"ha":530,"o":"m 265 487 q 314 487 314 607 q 314 648 302 672 q 289 695 265 695 q 239 695 227 672 q 214 649 214 608 q 214 487 265 487 z m 265 110 q 278 110 288 116 q 298 121 304 131 q 310 142 313 152 q 317 163 319 178 q 321 194 321 204 q 322 215 322 229 q 322 247 321 260 q 321 272 319 288 q 317 303 313 314 q 310 325 303 334 q 297 344 288 348 q 278 353 265 353 q 250 353 239 346 q 228 338 222 327 q 216 316 212 299 q 209 281 208 266 q 208 250 208 229 q 208 207 209 190 q 210 174 216 153 q 221 133 233 122 q 246 110 265 110 z m 265 -13 q 205 -13 161 6 q 117 24 92 58 q 66 93 54 138 q 43 180 43 232 q 43 237 43 241 q 44 305 67 354 q 90 404 136 427 q 102 452 80 496 q 58 540 56 602 q 56 606 56 611 q 56 708 108 763 q 162 820 265 820 q 367 820 421 763 q 472 708 472 611 q 472 606 472 602 q 470 539 449 495 q 427 451 393 427 q 438 403 462 354 q 485 304 486 241 q 486 235 486 228 q 486 178 477 138 q 465 93 439 58 q 414 24 369 6 q 325 -13 265 -13 z"},"\\":{"x_min":0,"x_max":422,"ha":422,"o":"m 290 0 l 43 810 l 132 810 l 379 0 z"},"e":{"x_min":0,"x_max":470,"ha":470,"o":"m 201 355 l 281 355 l 281 413 q 281 445 270 458 q 259 472 239 472 q 220 472 211 456 q 201 440 201 403 z m 240 -10 q 144 -10 92 41 q 40 92 40 186 l 40 393 q 40 486 92 537 q 145 588 240 588 q 336 588 384 538 q 432 489 432 393 l 432 279 l 201 279 l 201 177 q 201 142 210 124 q 219 106 240 106 q 281 106 281 163 l 281 201 l 432 201 l 432 167 q 432 81 382 35 q 331 -10 240 -10 z"},"b":{"x_min":0,"x_max":506,"ha":506,"o":"m 260 96 q 260 96 261 96 q 281 97 291 114 q 301 133 300 162 l 300 429 q 300 456 290 473 q 281 489 262 489 q 260 489 258 489 q 238 487 214 470 l 214 110 q 238 96 260 96 z m 214 43 l 214 0 l 51 0 l 51 810 l 214 810 l 214 536 q 273 588 335 588 q 338 588 340 588 q 403 586 433 538 q 464 490 464 417 l 464 170 q 464 88 431 39 q 398 -10 337 -10 q 276 -10 214 43 z"},"%":{"x_min":0,"x_max":1012,"ha":1012,"o":"m 336 0 l 582 810 l 674 810 l 428 0 z m 776 -1 q 674 -1 630 51 q 585 104 585 215 l 585 249 q 585 361 629 411 q 672 460 776 460 q 880 460 924 411 q 967 362 967 251 l 967 214 q 967 104 923 51 q 878 -1 776 -1 z m 832 221 l 832 245 q 832 272 831 286 q 831 300 828 316 q 825 332 819 338 q 813 345 802 350 q 792 354 776 354 q 760 354 749 350 q 739 345 733 338 q 727 331 724 316 q 722 300 721 286 q 720 272 720 246 l 720 220 q 720 194 721 179 q 722 164 725 147 q 728 131 734 123 q 740 114 750 109 q 761 104 776 104 q 791 104 802 109 q 812 114 818 123 q 824 131 827 148 q 830 164 831 179 q 832 195 832 221 z m 44 565 l 44 600 q 44 712 88 761 q 131 811 235 811 q 339 811 383 762 q 426 713 426 602 l 426 564 q 426 454 382 402 q 337 349 235 349 q 133 349 89 402 q 44 455 44 565 z m 291 571 l 291 596 q 291 623 290 637 q 290 650 287 666 q 284 682 278 689 q 272 696 261 700 q 251 705 235 705 q 219 705 208 700 q 198 696 192 689 q 186 682 183 666 q 181 651 180 637 q 179 623 179 596 l 179 571 q 179 545 180 530 q 181 514 184 498 q 187 481 193 473 q 199 465 209 459 q 220 454 235 454 q 250 454 260 459 q 271 465 277 473 q 283 482 286 498 q 289 515 290 530 q 291 545 291 571 z"},"m":{"x_min":0,"x_max":753,"ha":753,"o":"m 51 0 l 51 578 l 210 578 l 210 531 q 269 589 348 589 q 382 589 408 571 q 434 554 447 521 q 508 589 595 589 q 646 589 676 552 q 706 515 706 449 l 706 0 l 546 0 l 546 433 q 546 457 538 467 q 529 478 512 477 q 485 476 458 456 l 458 449 l 458 0 l 300 0 l 300 433 q 300 456 291 467 q 283 478 265 477 q 241 476 210 455 l 210 0 z"},"#":{"x_min":0,"x_max":534,"ha":534,"o":"m 221 372 l 299 372 l 312 485 l 234 485 z m 68 0 l 100 270 l 46 270 l 48 372 l 115 372 l 127 485 l 49 485 l 52 588 l 146 588 l 171 810 l 279 810 l 253 588 l 330 588 l 355 810 l 463 810 l 437 588 l 488 588 l 486 485 l 419 485 l 406 372 l 484 372 l 482 270 l 391 270 l 359 0 l 253 0 l 284 270 l 207 270 l 174 0 z"},",":{"x_min":0,"x_max":237,"ha":237,"o":"m 67 -140 l 57 -87 q 128 -70 128 0 l 43 0 l 43 152 l 197 152 l 197 20 q 197 -130 67 -140 z"},"n":{"x_min":0,"x_max":507,"ha":507,"o":"m 51 0 l 51 578 l 214 578 l 214 521 q 283 588 354 588 q 405 588 433 550 q 460 513 460 454 l 460 0 l 297 0 l 297 429 q 297 451 290 462 q 283 472 265 472 q 244 472 214 452 l 214 0 z"},"h":{"x_min":0,"x_max":509,"ha":509,"o":"m 52 0 l 52 810 l 215 810 l 215 526 q 276 588 356 588 q 407 588 435 550 q 462 513 462 454 l 462 0 l 299 0 l 299 429 q 299 451 292 462 q 285 472 267 472 q 245 472 215 451 l 215 0 z"},"z":{"x_min":0,"x_max":391,"ha":391,"o":"m 35 0 l 35 105 l 194 459 l 47 459 l 47 578 l 363 578 l 363 479 l 204 120 l 365 120 l 365 0 z"},"B":{"x_min":0,"x_max":588,"ha":588,"o":"m 238 486 l 272 486 q 330 486 351 512 q 372 538 372 594 q 372 689 267 689 l 238 689 z m 238 125 l 276 125 q 334 125 357 153 q 381 182 381 243 q 381 311 357 339 q 333 368 273 368 l 238 368 z m 60 0 l 60 810 l 271 810 q 316 810 351 805 q 387 800 422 787 q 457 773 479 750 q 502 728 516 688 q 528 652 528 604 q 528 601 528 598 q 526 456 409 435 q 479 426 516 376 q 552 327 553 240 q 553 237 553 235 q 553 116 491 59 q 428 0 309 0 z"},"K":{"x_min":0,"x_max":566,"ha":566,"o":"m 60 0 l 60 810 l 238 810 l 238 480 l 375 810 l 549 810 l 399 444 l 557 0 l 374 0 l 256 362 l 238 334 l 238 0 z"},"R":{"x_min":0,"x_max":598,"ha":598,"o":"m 238 465 l 284 465 q 339 465 361 494 q 384 522 384 579 q 384 635 364 662 q 343 689 293 689 l 238 689 z m 60 0 l 60 810 l 280 810 q 332 810 371 804 q 411 798 445 783 q 480 769 502 745 q 525 721 538 683 q 550 646 550 595 q 550 516 529 467 q 507 419 451 392 l 562 0 l 377 0 l 289 362 l 238 362 l 238 0 z"},"T":{"x_min":0,"x_max":446,"ha":446,"o":"m 134 0 l 134 677 l 10 677 l 10 810 l 437 810 l 437 677 l 313 677 l 313 0 z"},"P":{"x_min":0,"x_max":567,"ha":567,"o":"m 238 469 l 295 469 q 344 469 360 494 q 375 519 375 578 q 375 599 374 613 q 373 627 368 642 q 364 656 355 665 q 347 673 332 679 q 316 684 295 684 l 238 684 z m 60 0 l 60 810 l 330 810 q 437 810 490 750 q 543 689 543 575 q 543 529 535 493 q 527 457 512 432 q 496 407 476 390 q 455 373 428 363 q 400 353 372 349 q 343 345 309 345 l 238 345 l 238 0 z"},"|":{"x_min":0,"x_max":263,"ha":263,"o":"m 64 -179 l 64 810 l 199 810 l 199 -179 z"},"t":{"x_min":0,"x_max":354,"ha":354,"o":"m 215 -7 q 188 -6 166 1 q 145 7 129 18 q 114 28 103 43 q 92 59 85 76 q 79 92 75 114 q 71 136 69 156 q 68 177 68 202 l 68 472 l 13 472 l 13 578 l 68 578 l 68 753 l 232 753 l 232 578 l 315 578 l 315 472 l 232 472 l 232 173 q 232 127 285 126 q 291 125 299 126 q 307 126 312 127 q 317 128 323 129 q 328 130 328 130 l 328 1 q 276 -7 231 -7 q 223 -7 215 -7 z"},"M":{"x_min":0,"x_max":704,"ha":704,"o":"m 57 0 l 70 810 l 262 810 l 352 336 l 448 810 l 633 810 l 646 0 l 519 0 l 505 537 l 410 0 l 298 0 l 199 541 l 187 0 z"},"g":{"x_min":0,"x_max":499,"ha":499,"o":"m 247 276 q 275 276 283 300 q 292 323 292 383 q 292 446 284 468 q 276 490 247 490 q 236 490 229 488 q 222 485 217 478 q 212 470 209 463 q 207 456 205 441 q 204 427 204 416 q 204 404 204 383 q 204 354 205 337 q 207 319 211 304 q 215 290 224 283 q 233 276 247 276 z m 268 -71 q 308 -71 327 -63 q 345 -55 347 -35 q 348 -30 348 -25 q 348 -7 337 2 q 323 14 287 17 l 200 28 q 177 -6 177 -29 q 177 -51 197 -61 q 217 -71 268 -71 z m 269 -173 q 245 -173 226 -173 q 207 -172 180 -169 q 154 -167 134 -163 q 113 -158 92 -150 q 71 -142 57 -130 q 43 -119 34 -102 q 25 -84 25 -63 q 25 -6 107 51 q 71 64 55 80 q 38 96 35 116 q 34 124 34 132 q 34 155 47 174 q 65 200 105 231 q 42 277 42 375 q 42 483 95 535 q 147 588 244 588 q 336 588 375 538 q 412 581 454 602 l 475 613 l 513 533 q 498 529 466 515 q 435 500 416 489 q 445 445 445 376 q 445 283 398 231 q 351 179 255 179 q 232 179 205 184 q 179 189 163 196 q 145 173 145 160 q 145 158 146 156 q 147 141 199 134 q 212 131 261 125 q 309 119 324 117 q 408 106 442 73 q 476 40 476 -22 q 476 -57 465 -84 q 455 -110 432 -131 q 408 -152 367 -163 q 326 -173 269 -173 z"},"j":{"x_min":0,"x_max":276,"ha":276,"o":"m 63 675 l 63 790 l 227 790 l 227 675 z m -9 -166 l -9 -49 q 14 -53 20 -53 q 64 -53 64 -4 l 64 578 l 227 578 l 227 -23 q 227 -94 188 -136 q 149 -179 77 -179 q 35 -179 -9 -166 z"},"i":{"x_min":0,"x_max":266,"ha":266,"o":"m 51 675 l 51 790 l 215 790 l 215 675 z m 52 0 l 52 578 l 215 578 l 215 0 z"},"y":{"x_min":0,"x_max":447,"ha":447,"o":"m 66 -167 l 66 -55 q 120 -55 141 -44 q 159 -34 159 -5 q 159 -2 159 1 q 156 26 137 92 q 132 115 70 335 q 8 555 2 578 l 156 578 l 228 245 l 283 578 l 437 578 l 300 -31 q 270 -167 94 -167 q 91 -167 89 -167 z"},"@":{"x_min":0,"x_max":953,"ha":953,"o":"m 475 215 q 518 224 527 246 l 558 480 q 557 487 548 490 q 538 494 530 494 q 492 494 464 465 q 435 437 422 396 q 409 355 409 311 q 409 310 409 309 q 409 268 424 241 q 439 215 471 215 q 473 215 475 215 z m 473 -128 q 325 -128 225 -71 q 126 -13 84 93 q 53 170 53 269 q 53 306 58 346 q 67 451 105 536 q 143 622 204 683 q 266 744 353 777 q 439 810 544 810 q 627 810 693 789 q 759 768 804 729 q 849 691 878 638 q 906 585 916 521 q 922 484 922 443 q 922 415 919 385 q 917 346 906 308 q 896 269 875 231 q 854 192 825 164 q 797 135 755 117 q 713 99 664 99 q 619 99 583 118 q 546 137 535 173 q 523 146 498 128 q 472 109 440 106 q 432 105 424 105 q 380 105 345 129 q 304 156 285 204 q 268 247 268 299 q 268 306 268 312 q 270 349 278 388 q 286 427 304 468 q 322 509 348 541 q 373 572 411 593 q 450 613 496 613 q 503 613 510 611 q 518 610 524 606 q 530 603 534 599 q 539 596 544 590 q 548 584 551 581 q 554 578 558 571 q 561 563 562 561 q 563 558 566 552 q 569 545 569 544 l 579 606 l 709 606 l 665 277 q 661 247 661 228 q 661 208 665 200 q 668 192 675 190 q 681 188 688 188 q 709 188 732 207 q 762 231 782 279 q 803 326 808 383 q 811 412 811 438 q 812 480 804 517 q 792 576 760 620 q 728 664 670 688 q 613 711 533 711 q 465 711 409 693 q 354 674 313 641 q 273 608 244 562 q 215 516 199 463 q 183 410 176 349 q 171 308 171 272 q 171 229 178 192 q 190 124 227 74 q 263 24 329 -2 q 395 -28 488 -28 q 528 -28 585 -19 q 643 -9 686 5 l 705 -96 q 567 -128 473 -128 z"},".":{"x_min":0,"x_max":243,"ha":243,"o":"m 45 0 l 45 153 l 200 153 l 200 0 z"},"p":{"x_min":0,"x_max":505,"ha":505,"o":"m 258 96 q 258 96 259 96 q 279 97 289 114 q 299 133 299 162 l 299 429 q 299 456 289 473 q 279 489 261 489 q 259 489 256 489 q 238 487 214 470 l 214 110 q 237 96 258 96 z m 51 -190 l 51 578 l 214 578 l 214 536 q 273 588 334 588 q 337 588 339 588 q 402 586 432 538 q 463 490 463 417 l 463 170 q 463 88 430 39 q 397 -10 336 -10 q 275 -10 214 43 l 214 -190 z"},"X":{"x_min":0,"x_max":515,"ha":515,"o":"m 7 0 l 165 437 l 14 810 l 183 810 l 271 591 l 343 810 l 493 810 l 351 390 l 508 0 l 341 0 l 243 241 l 155 0 z"},"*":{"x_min":0,"x_max":423,"ha":423,"o":"m 172 450 l 76 506 l 147 608 l 40 649 l 77 747 l 174 693 l 161 809 l 283 809 l 271 692 l 368 747 l 404 649 l 296 607 l 369 507 l 272 450 l 222 557 z"},"Y":{"x_min":0,"x_max":494,"ha":494,"o":"m 162 0 l 162 331 l 8 810 l 176 810 l 253 553 l 323 810 l 486 810 l 333 331 l 333 0 z"},"c":{"x_min":0,"x_max":468,"ha":468,"o":"m 239 -10 q 144 -10 92 41 q 40 93 40 185 l 40 394 q 40 486 92 537 q 144 588 239 588 q 333 588 384 544 q 434 500 434 414 l 434 353 l 277 353 l 277 418 q 277 452 268 464 q 259 476 240 476 q 221 476 212 461 q 203 446 203 409 l 203 169 q 203 131 212 117 q 221 103 240 103 q 259 103 268 116 q 277 129 277 159 l 277 235 l 434 235 l 434 166 q 434 80 383 35 q 332 -10 239 -10 z"},"!":{"x_min":0,"x_max":256,"ha":256,"o":"m 95 206 l 48 808 l 210 808 l 152 206 z m 45 0 l 45 152 l 199 152 l 199 0 z"},"/":{"x_min":0,"x_max":422,"ha":422,"o":"m 43 0 l 290 810 l 379 810 l 132 0 z"},"[":{"x_min":0,"x_max":334,"ha":334,"o":"m 52 -186 l 52 810 l 305 810 l 305 746 l 180 746 l 180 -123 l 304 -123 l 304 -186 z"},"6":{"x_min":0,"x_max":533,"ha":533,"o":"m 276 112 q 293 112 303 120 q 313 128 319 147 q 324 167 326 189 q 328 212 328 248 q 328 269 327 280 q 327 291 326 307 q 325 323 323 332 q 321 341 317 352 q 313 362 308 367 q 302 372 294 376 q 286 379 275 379 q 257 379 242 369 q 227 358 220 345 l 220 215 q 220 112 276 112 z m 274 -12 q 216 -12 172 8 q 129 28 103 64 q 76 101 63 148 q 50 196 50 255 l 50 544 q 50 594 56 634 q 62 674 77 710 q 92 746 117 769 q 142 793 181 807 q 221 821 273 821 q 331 821 371 807 q 411 794 435 767 q 458 740 469 702 q 480 665 481 613 l 481 599 l 323 599 q 323 653 315 674 q 306 694 274 694 q 241 694 230 662 q 220 629 220 533 l 220 461 q 232 482 259 494 q 286 506 320 507 q 322 507 325 507 q 369 507 401 490 q 436 473 456 440 q 476 408 486 366 q 495 325 495 274 q 495 208 484 158 q 473 108 448 69 q 424 29 380 9 q 336 -12 274 -12 z"},"r":{"x_min":0,"x_max":371,"ha":371,"o":"m 53 0 l 53 578 l 216 578 l 216 482 q 269 585 332 585 q 340 585 354 582 l 354 437 q 341 440 328 440 q 261 437 216 371 l 216 0 z"},"2":{"x_min":0,"x_max":530,"ha":530,"o":"m 54 0 l 54 118 l 246 417 q 251 424 265 445 q 279 466 286 477 q 292 488 303 508 q 314 527 320 542 q 325 556 330 574 q 334 592 334 609 q 334 647 317 666 q 304 681 283 680 q 278 680 271 679 q 243 675 229 648 q 216 622 216 568 l 216 529 l 54 529 l 54 571 q 54 626 66 671 q 79 715 105 750 q 132 785 176 803 q 220 822 279 822 q 387 822 443 766 q 500 709 500 607 q 500 592 498 577 q 496 562 493 549 q 491 537 486 521 q 480 505 477 496 q 473 486 464 470 q 456 454 452 447 q 448 439 437 422 q 426 405 422 400 q 419 395 406 375 q 393 356 390 353 l 242 131 l 477 131 l 477 0 z"},"{":{"x_min":0,"x_max":375,"ha":375,"o":"m 343 -195 q 303 -195 273 -192 q 242 -190 218 -184 q 194 -177 177 -169 q 161 -161 149 -147 q 137 -133 130 -119 q 123 -104 119 -81 q 115 -58 114 -36 q 112 -14 112 19 l 112 102 q 112 132 112 149 q 112 167 111 185 q 110 204 108 213 q 106 223 103 232 q 100 242 95 246 q 91 250 84 253 q 76 256 68 257 q 60 258 47 258 l 47 375 q 60 375 68 375 q 76 376 84 379 q 91 383 95 386 q 100 390 103 400 q 106 410 108 419 q 110 428 111 447 q 112 466 112 483 q 112 500 112 531 l 112 613 q 112 646 114 668 q 115 690 119 713 q 123 736 130 751 q 137 766 149 780 q 161 793 177 802 q 194 810 218 816 q 242 822 273 825 q 303 827 343 827 l 343 718 q 315 718 301 715 q 287 711 278 698 q 269 685 266 665 q 264 644 264 604 l 264 512 q 264 421 245 375 q 226 328 177 316 q 226 305 245 258 q 264 211 264 121 l 264 28 q 264 -12 266 -32 q 269 -53 278 -66 q 287 -79 301 -82 q 315 -85 343 -85 z"},"9":{"x_min":0,"x_max":533,"ha":533,"o":"m 266 430 q 298 430 316 464 l 316 594 q 316 617 314 633 q 312 649 307 665 q 302 681 291 689 q 280 697 264 697 q 232 697 223 666 q 213 635 213 561 q 213 536 214 524 q 214 512 215 493 q 217 475 220 466 q 223 457 229 447 q 234 438 244 434 q 253 430 266 430 z m 263 -12 q 206 -12 166 2 q 126 15 102 42 q 79 70 68 107 q 57 145 57 197 l 57 210 l 214 210 q 214 157 224 136 q 233 115 265 115 q 298 115 307 146 q 316 178 316 276 l 316 348 q 304 327 278 315 q 252 303 218 302 q 215 302 213 302 q 169 303 136 320 q 102 339 82 373 q 62 408 52 450 q 43 492 43 543 q 43 609 55 658 q 67 708 93 745 q 118 782 161 802 q 204 821 264 821 q 378 821 433 752 q 487 684 487 563 l 487 265 q 487 215 481 175 q 476 135 460 99 q 445 63 420 40 q 395 16 355 2 q 316 -12 263 -12 z"}," ":{"x_min":0,"x_max":257,"ha":257,"o":""},"I":{"x_min":0,"x_max":300,"ha":300,"o":"m 61 0 l 61 810 l 240 810 l 240 0 z"},"H":{"x_min":0,"x_max":609,"ha":609,"o":"m 63 0 l 63 810 l 242 810 l 242 482 l 367 482 l 367 810 l 546 810 l 546 0 l 367 0 l 367 354 l 242 354 l 242 0 z"},"4":{"x_min":0,"x_max":534,"ha":534,"o":"m 159 308 l 279 308 l 279 646 z m 279 0 l 279 186 l 33 186 l 33 312 l 243 810 l 429 810 l 429 308 l 507 308 l 507 186 l 429 186 l 429 0 z"},"~":{"x_min":0,"x_max":483,"ha":483,"o":"m 328 333 q 309 333 283 342 q 257 352 237 363 q 216 374 195 383 q 173 392 160 392 q 147 392 127 379 q 107 366 91 344 l 40 412 q 61 448 95 477 q 128 506 158 506 q 183 506 216 491 q 250 477 280 462 q 310 448 324 448 q 350 448 392 495 l 449 437 q 431 397 396 365 q 361 333 328 333 z"},"D":{"x_min":0,"x_max":584,"ha":584,"o":"m 60 0 l 60 810 l 263 810 q 343 810 395 795 q 448 781 479 749 q 510 717 523 670 q 536 624 536 553 l 536 261 q 536 190 523 143 q 510 95 479 62 q 448 29 396 15 q 344 0 266 0 z m 238 124 l 266 124 q 286 124 301 127 q 315 129 324 136 q 334 143 340 151 q 345 158 348 173 q 351 187 351 200 q 352 213 352 235 l 352 583 q 352 614 350 630 q 347 647 338 661 q 330 674 312 679 q 295 685 265 685 l 238 685 z"},"^":{"x_min":0,"x_max":478,"ha":478,"o":"m 30 474 l 173 810 l 304 810 l 447 474 l 309 474 l 238 670 l 168 474 z"},"0":{"x_min":0,"x_max":534,"ha":534,"o":"m 268 -15 q 161 -15 104 48 q 46 111 46 217 l 46 584 q 46 695 102 758 q 157 822 268 822 q 377 822 432 758 q 488 694 488 584 l 488 217 q 488 112 430 49 q 373 -15 268 -15 z m 317 222 l 317 580 q 317 591 317 598 q 317 605 316 618 q 314 631 311 639 q 308 647 302 656 q 297 664 288 668 q 279 672 268 672 q 258 672 251 670 q 243 668 238 662 q 233 657 229 652 q 226 647 223 638 q 221 629 220 624 q 219 619 218 608 q 218 597 218 594 q 218 590 218 580 l 218 222 q 218 134 268 134 q 317 134 317 222 z"},"F":{"x_min":0,"x_max":433,"ha":433,"o":"m 60 0 l 60 810 l 410 810 l 410 688 l 238 688 l 238 484 l 386 484 l 386 359 l 238 359 l 238 0 z"},"`":{"x_min":0,"x_max":309,"ha":309,"o":"m 167 608 l 41 810 l 208 810 l 269 608 z"},"k":{"x_min":0,"x_max":539,"ha":539,"o":"m 51 0 l 51 810 l 213 810 l 213 361 l 353 578 l 536 578 l 384 341 l 535 0 l 356 0 l 256 274 l 213 220 l 213 0 z"},"u":{"x_min":0,"x_max":503,"ha":503,"o":"m 152 -10 q 101 -10 73 28 q 46 65 46 125 l 46 578 l 209 578 l 209 144 q 209 123 217 112 q 224 101 242 101 q 262 102 289 119 l 289 578 l 452 578 l 452 0 l 289 0 l 289 53 q 222 -10 152 -10 z"},"]":{"x_min":0,"x_max":325,"ha":325,"o":"m 21 -186 l 21 -123 l 146 -123 l 145 746 l 21 746 l 21 810 l 272 810 l 273 -186 z"},"U":{"x_min":0,"x_max":587,"ha":587,"o":"m 293 -11 q 238 -11 197 0 q 156 12 129 33 q 102 54 85 87 q 68 121 61 161 q 54 201 54 255 l 54 810 l 231 810 l 231 229 q 231 209 232 196 q 233 183 237 167 q 240 151 247 141 q 253 131 265 125 q 277 118 293 118 q 310 118 322 125 q 333 131 340 141 q 346 151 350 167 q 354 183 354 196 q 355 210 355 229 l 355 810 l 533 810 l 533 255 q 533 188 521 140 q 510 93 483 58 q 456 22 409 6 q 362 -11 293 -11 z"},"o":{"x_min":0,"x_max":483,"ha":483,"o":"m 40 180 l 40 398 q 40 491 93 539 q 146 588 241 588 q 335 588 389 539 q 443 490 443 398 l 443 180 q 443 87 389 39 q 335 -10 241 -10 q 146 -10 93 39 q 40 87 40 180 z m 241 99 q 264 99 273 116 q 282 134 282 168 l 282 409 q 282 444 273 462 q 264 479 241 479 q 218 479 209 461 q 200 443 200 409 l 200 168 q 200 135 209 117 q 218 99 241 99 z"},"N":{"x_min":0,"x_max":560,"ha":560,"o":"m 60 0 l 60 810 l 186 810 l 352 421 l 352 810 l 500 810 l 500 0 l 379 0 l 212 419 l 212 0 z"},"+":{"x_min":0,"x_max":450,"ha":450,"o":"m 170 207 l 170 367 l 26 367 l 26 463 l 170 463 l 170 620 l 278 620 l 278 463 l 423 463 l 423 367 l 278 367 l 278 207 z"},"G":{"x_min":0,"x_max":581,"ha":581,"o":"m 271 -12 q 209 -12 166 8 q 122 28 97 66 q 71 104 60 154 q 48 204 48 269 l 48 538 q 48 592 56 634 q 63 677 81 712 q 98 748 126 771 q 154 795 195 808 q 237 821 292 821 q 344 821 385 810 q 425 798 452 778 q 479 758 497 728 q 514 698 521 663 q 528 627 528 583 l 528 532 l 354 532 l 354 597 q 354 616 353 627 q 352 639 349 653 q 346 667 340 675 q 333 683 322 689 q 311 694 294 694 q 277 694 265 688 q 253 682 247 673 q 240 664 237 648 q 233 633 232 621 q 231 608 231 590 l 231 220 q 231 171 246 143 q 260 115 298 115 q 369 115 369 223 l 369 314 l 295 314 l 295 421 l 530 421 l 530 0 l 412 0 l 401 68 q 366 -12 271 -12 z"},"q":{"x_min":0,"x_max":504,"ha":504,"o":"m 248 95 q 266 95 292 111 l 292 472 q 266 485 249 485 q 227 485 216 468 q 206 451 206 423 l 206 159 q 206 131 216 113 q 226 95 248 95 z m 292 -190 l 292 47 q 235 -10 176 -10 q 111 -10 76 35 q 42 81 42 170 l 42 405 q 42 487 76 538 q 111 588 176 588 q 237 588 292 540 l 292 578 l 455 578 l 455 -190 z"},"d":{"x_min":0,"x_max":503,"ha":503,"o":"m 247 95 q 264 95 290 109 l 290 473 q 268 485 248 485 q 227 485 216 468 q 206 451 206 423 l 206 159 q 206 131 216 113 q 226 95 247 95 z m 177 -10 q 111 -10 77 35 q 42 81 42 170 l 42 405 q 42 487 77 538 q 111 588 177 588 q 237 588 290 542 l 290 810 l 453 810 l 453 0 l 290 0 l 290 44 q 234 -10 177 -10 z"},"1":{"x_min":0,"x_max":530,"ha":530,"o":"m 208 0 l 208 643 l 95 596 l 95 721 q 133 739 180 765 q 227 791 245 810 l 376 810 l 376 0 z"},"5":{"x_min":0,"x_max":529,"ha":529,"o":"m 269 -15 q 216 -15 178 -2 q 141 10 117 31 q 94 51 80 84 q 66 117 62 153 q 57 189 57 238 l 218 238 q 218 166 230 137 q 242 110 275 110 q 277 110 279 110 q 289 110 297 113 q 305 116 310 123 q 316 130 320 136 q 324 143 326 156 q 329 169 330 179 q 332 189 332 209 q 333 228 333 241 q 333 254 333 278 q 333 311 331 333 q 329 356 323 376 q 316 397 303 407 q 290 417 271 417 q 219 417 207 344 l 62 344 l 76 810 l 456 810 l 456 669 l 211 669 l 202 503 q 213 517 240 528 q 268 538 301 541 q 312 542 322 542 q 399 542 442 482 q 491 414 491 284 q 491 237 487 201 q 484 166 475 130 q 467 95 451 70 q 435 44 411 25 q 387 5 351 -5 q 315 -15 269 -15 z"}}}
